<mxfile host="65bd71144e">
    <diagram id="jbgGNCWju3AG-MS-2r18" name="Page-1">
        <mxGraphModel dx="595" dy="448" grid="1" gridSize="10" guides="1" tooltips="1" connect="1" arrows="1" fold="1" page="1" pageScale="1" pageWidth="1100" pageHeight="850" math="0" shadow="0">
            <root>
                <mxCell id="0"/>
                <mxCell id="1" parent="0"/>
                <mxCell id="2" value="&lt;meta charset=&quot;utf-8&quot;&gt;&lt;b id=&quot;docs-internal-guid-491bca35-7fff-ad0a-19ec-67bc4a69c7fa&quot; style=&quot;font-weight:normal;&quot;&gt;&lt;span style=&quot;font-size: 12pt; font-family: &amp;quot;Times New Roman&amp;quot;, serif; background-color: transparent; font-weight: 400; font-style: normal; font-variant: normal; text-decoration: none; vertical-align: baseline;&quot;&gt;&amp;lt;expr&amp;gt;&lt;/span&gt;&lt;/b&gt;" style="text;strokeColor=none;fillColor=none;html=1;fontSize=24;fontStyle=1;verticalAlign=middle;align=center;fontFamily=Times New Roman;fontColor=#000000;" vertex="1" parent="1">
                    <mxGeometry x="210" y="41" width="70" height="30" as="geometry"/>
                </mxCell>
                <mxCell id="3" value="&lt;b id=&quot;docs-internal-guid-491bca35-7fff-ad0a-19ec-67bc4a69c7fa&quot; style=&quot;font-weight:normal;&quot;&gt;&lt;span style=&quot;font-size: 12pt; font-family: &amp;quot;Times New Roman&amp;quot;, serif; background-color: transparent; font-weight: 400; font-style: normal; font-variant: normal; text-decoration: none; vertical-align: baseline;&quot;&gt;&amp;lt;lambda&amp;gt;&lt;/span&gt;&lt;/b&gt;" style="text;strokeColor=none;fillColor=none;html=1;fontSize=24;fontStyle=1;verticalAlign=middle;align=center;fontFamily=Times New Roman;fontColor=#000000;" vertex="1" parent="1">
                    <mxGeometry x="200" y="102" width="90" height="30" as="geometry"/>
                </mxCell>
                <mxCell id="4" value="&lt;span style=&quot;&quot; id=&quot;docs-internal-guid-491bca35-7fff-ad0a-19ec-67bc4a69c7fa&quot;&gt;&lt;span style=&quot;font-size: 12pt; font-family: &amp;quot;Times New Roman&amp;quot;, serif; background-color: transparent; font-style: normal; font-variant: normal; vertical-align: baseline;&quot;&gt;#&lt;/span&gt;&lt;/span&gt;" style="text;strokeColor=none;fillColor=none;html=1;fontSize=24;fontStyle=1;verticalAlign=middle;align=center;fontFamily=Times New Roman;fontColor=#009900;" vertex="1" parent="1">
                    <mxGeometry x="110" y="159" width="30" height="30" as="geometry"/>
                </mxCell>
                <mxCell id="23" style="edgeStyle=none;html=1;entryX=0.5;entryY=0;entryDx=0;entryDy=0;fontFamily=Times New Roman;fontColor=#000000;strokeColor=#0a0a0a;" edge="1" parent="1" target="3">
                    <mxGeometry relative="1" as="geometry">
                        <mxPoint x="245" y="80" as="sourcePoint"/>
                        <Array as="points">
                            <mxPoint x="245" y="80"/>
                        </Array>
                    </mxGeometry>
                </mxCell>
                <mxCell id="5" value="&lt;meta charset=&quot;utf-8&quot;&gt;&lt;b id=&quot;docs-internal-guid-491bca35-7fff-ad0a-19ec-67bc4a69c7fa&quot; style=&quot;font-weight:normal;&quot;&gt;&lt;span style=&quot;font-size: 12pt; font-family: &amp;quot;Times New Roman&amp;quot;, serif; background-color: transparent; font-weight: 400; font-style: normal; font-variant: normal; text-decoration: none; vertical-align: baseline;&quot;&gt;&amp;lt;expr&amp;gt;&lt;/span&gt;&lt;/b&gt;" style="text;strokeColor=none;fillColor=none;html=1;fontSize=24;fontStyle=1;verticalAlign=middle;align=center;fontFamily=Times New Roman;fontColor=#000000;" vertex="1" parent="1">
                    <mxGeometry x="350" y="159" width="70" height="30" as="geometry"/>
                </mxCell>
                <mxCell id="6" value="&lt;b id=&quot;docs-internal-guid-491bca35-7fff-ad0a-19ec-67bc4a69c7fa&quot; style=&quot;font-weight:normal;&quot;&gt;&lt;span style=&quot;font-size: 12pt; font-family: &amp;quot;Times New Roman&amp;quot;, serif; background-color: transparent; font-weight: 400; font-style: normal; font-variant: normal; text-decoration: none; vertical-align: baseline;&quot;&gt;&amp;lt;var&amp;gt;&lt;/span&gt;&lt;/b&gt;" style="text;strokeColor=none;fillColor=none;html=1;fontSize=24;fontStyle=1;verticalAlign=middle;align=center;fontFamily=Times New Roman;fontColor=#000000;" vertex="1" parent="1">
                    <mxGeometry x="180" y="159" width="60" height="30" as="geometry"/>
                </mxCell>
                <mxCell id="7" value="&lt;span style=&quot;&quot; id=&quot;docs-internal-guid-491bca35-7fff-ad0a-19ec-67bc4a69c7fa&quot;&gt;&lt;span style=&quot;font-size: 12pt; font-family: &amp;quot;Times New Roman&amp;quot;, serif; background-color: transparent; font-style: normal; font-variant: normal; vertical-align: baseline;&quot;&gt;.&lt;/span&gt;&lt;/span&gt;" style="text;strokeColor=none;fillColor=none;html=1;fontSize=24;fontStyle=1;verticalAlign=middle;align=center;fontFamily=Times New Roman;fontColor=#009900;" vertex="1" parent="1">
                    <mxGeometry x="260" y="159" width="70" height="30" as="geometry"/>
                </mxCell>
                <mxCell id="8" value="&lt;span style=&quot;&quot; id=&quot;docs-internal-guid-491bca35-7fff-ad0a-19ec-67bc4a69c7fa&quot;&gt;&lt;span style=&quot;font-size: 12pt; font-family: &amp;quot;Times New Roman&amp;quot;, serif; background-color: transparent; font-style: normal; font-variant: normal; vertical-align: baseline;&quot;&gt;g&lt;/span&gt;&lt;/span&gt;" style="text;strokeColor=none;fillColor=none;html=1;fontSize=24;fontStyle=1;verticalAlign=middle;align=center;fontFamily=Times New Roman;fontColor=#009900;" vertex="1" parent="1">
                    <mxGeometry x="175" y="214" width="70" height="36" as="geometry"/>
                </mxCell>
                <mxCell id="10" value="&lt;b id=&quot;docs-internal-guid-491bca35-7fff-ad0a-19ec-67bc4a69c7fa&quot; style=&quot;font-weight:normal;&quot;&gt;&lt;span style=&quot;font-size: 12pt; font-family: &amp;quot;Times New Roman&amp;quot;, serif; background-color: transparent; font-weight: 400; font-style: normal; font-variant: normal; text-decoration: none; vertical-align: baseline;&quot;&gt;&amp;lt;lambda&amp;gt;&lt;/span&gt;&lt;/b&gt;" style="text;strokeColor=none;fillColor=none;html=1;fontSize=24;fontStyle=1;verticalAlign=middle;align=center;fontFamily=Times New Roman;fontColor=#000000;" vertex="1" parent="1">
                    <mxGeometry x="341" y="404" width="90" height="30" as="geometry"/>
                </mxCell>
                <mxCell id="11" value="&lt;span style=&quot;&quot; id=&quot;docs-internal-guid-491bca35-7fff-ad0a-19ec-67bc4a69c7fa&quot;&gt;&lt;span style=&quot;font-size: 12pt; font-family: &amp;quot;Times New Roman&amp;quot;, serif; background-color: transparent; font-style: normal; font-variant: normal; vertical-align: baseline;&quot;&gt;#&lt;/span&gt;&lt;/span&gt;" style="text;strokeColor=none;fillColor=none;html=1;fontSize=24;fontStyle=1;verticalAlign=middle;align=center;fontFamily=Times New Roman;fontColor=#009900;" vertex="1" parent="1">
                    <mxGeometry x="240" y="474" width="30" height="30" as="geometry"/>
                </mxCell>
                <mxCell id="12" value="&lt;meta charset=&quot;utf-8&quot;&gt;&lt;b id=&quot;docs-internal-guid-491bca35-7fff-ad0a-19ec-67bc4a69c7fa&quot; style=&quot;font-weight:normal;&quot;&gt;&lt;span style=&quot;font-size: 12pt; font-family: &amp;quot;Times New Roman&amp;quot;, serif; background-color: transparent; font-weight: 400; font-style: normal; font-variant: normal; text-decoration: none; vertical-align: baseline;&quot;&gt;&amp;lt;expr&amp;gt;&lt;/span&gt;&lt;/b&gt;" style="text;strokeColor=none;fillColor=none;html=1;fontSize=24;fontStyle=1;verticalAlign=middle;align=center;fontFamily=Times New Roman;fontColor=#000000;" vertex="1" parent="1">
                    <mxGeometry x="480" y="474" width="70" height="30" as="geometry"/>
                </mxCell>
                <mxCell id="13" value="&lt;b id=&quot;docs-internal-guid-491bca35-7fff-ad0a-19ec-67bc4a69c7fa&quot; style=&quot;font-weight:normal;&quot;&gt;&lt;span style=&quot;font-size: 12pt; font-family: &amp;quot;Times New Roman&amp;quot;, serif; background-color: transparent; font-weight: 400; font-style: normal; font-variant: normal; text-decoration: none; vertical-align: baseline;&quot;&gt;&amp;lt;var&amp;gt;&lt;/span&gt;&lt;/b&gt;" style="text;strokeColor=none;fillColor=none;html=1;fontSize=24;fontStyle=1;verticalAlign=middle;align=center;fontFamily=Times New Roman;fontColor=#000000;" vertex="1" parent="1">
                    <mxGeometry x="310" y="474" width="60" height="30" as="geometry"/>
                </mxCell>
                <mxCell id="14" value="&lt;span style=&quot;&quot; id=&quot;docs-internal-guid-491bca35-7fff-ad0a-19ec-67bc4a69c7fa&quot;&gt;&lt;span style=&quot;font-size: 12pt; font-family: &amp;quot;Times New Roman&amp;quot;, serif; background-color: transparent; font-style: normal; font-variant: normal; vertical-align: baseline;&quot;&gt;.&lt;/span&gt;&lt;/span&gt;" style="text;strokeColor=none;fillColor=none;html=1;fontSize=24;fontStyle=1;verticalAlign=middle;align=center;fontFamily=Times New Roman;fontColor=#009900;" vertex="1" parent="1">
                    <mxGeometry x="390" y="474" width="70" height="30" as="geometry"/>
                </mxCell>
                <mxCell id="15" value="&lt;span style=&quot;&quot; id=&quot;docs-internal-guid-491bca35-7fff-ad0a-19ec-67bc4a69c7fa&quot;&gt;&lt;span style=&quot;font-size: 12pt; font-family: &amp;quot;Times New Roman&amp;quot;, serif; background-color: transparent; font-style: normal; font-variant: normal; vertical-align: baseline;&quot;&gt;j&lt;/span&gt;&lt;/span&gt;" style="text;strokeColor=none;fillColor=none;html=1;fontSize=24;fontStyle=1;verticalAlign=middle;align=center;fontFamily=Times New Roman;fontColor=#009900;" vertex="1" parent="1">
                    <mxGeometry x="310" y="534" width="60" height="30" as="geometry"/>
                </mxCell>
                <mxCell id="16" value="&lt;b id=&quot;docs-internal-guid-491bca35-7fff-ad0a-19ec-67bc4a69c7fa&quot; style=&quot;font-weight:normal;&quot;&gt;&lt;span style=&quot;font-size: 12pt; font-family: &amp;quot;Times New Roman&amp;quot;, serif; background-color: transparent; font-weight: 400; font-style: normal; font-variant: normal; text-decoration: none; vertical-align: baseline;&quot;&gt;&amp;lt;arg&amp;gt;&lt;/span&gt;&lt;/b&gt;" style="text;strokeColor=none;fillColor=none;html=1;fontSize=24;fontStyle=1;verticalAlign=middle;align=center;fontFamily=Times New Roman;fontColor=#000000;" vertex="1" parent="1">
                    <mxGeometry x="350" y="242" width="70" height="30" as="geometry"/>
                </mxCell>
                <mxCell id="17" value="&lt;span style=&quot;&quot; id=&quot;docs-internal-guid-491bca35-7fff-ad0a-19ec-67bc4a69c7fa&quot;&gt;&lt;span style=&quot;font-size: 12pt; font-family: &amp;quot;Times New Roman&amp;quot;, serif; background-color: transparent; font-style: normal; font-variant: normal; vertical-align: baseline;&quot;&gt;)&lt;/span&gt;&lt;/span&gt;" style="text;strokeColor=none;fillColor=none;html=1;fontSize=24;fontStyle=1;verticalAlign=middle;align=center;fontFamily=Times New Roman;fontColor=#009900;" vertex="1" parent="1">
                    <mxGeometry x="430" y="328" width="70" height="32" as="geometry"/>
                </mxCell>
                <mxCell id="18" value="&lt;span style=&quot;&quot; id=&quot;docs-internal-guid-491bca35-7fff-ad0a-19ec-67bc4a69c7fa&quot;&gt;&lt;span style=&quot;font-size: 12pt; font-family: &amp;quot;Times New Roman&amp;quot;, serif; background-color: transparent; font-style: normal; font-variant: normal; vertical-align: baseline;&quot;&gt;(&lt;/span&gt;&lt;/span&gt;" style="text;strokeColor=none;fillColor=none;html=1;fontSize=24;fontStyle=1;verticalAlign=middle;align=center;fontFamily=Times New Roman;fontColor=#009900;" vertex="1" parent="1">
                    <mxGeometry x="270" y="328" width="70" height="30" as="geometry"/>
                </mxCell>
                <mxCell id="19" value="&lt;meta charset=&quot;utf-8&quot;&gt;&lt;b id=&quot;docs-internal-guid-491bca35-7fff-ad0a-19ec-67bc4a69c7fa&quot; style=&quot;font-weight:normal;&quot;&gt;&lt;span style=&quot;font-size: 12pt; font-family: &amp;quot;Times New Roman&amp;quot;, serif; background-color: transparent; font-weight: 400; font-style: normal; font-variant: normal; text-decoration: none; vertical-align: baseline;&quot;&gt;&amp;lt;expr&amp;gt;&lt;/span&gt;&lt;/b&gt;" style="text;strokeColor=none;fillColor=none;html=1;fontSize=24;fontStyle=1;verticalAlign=middle;align=center;fontFamily=Times New Roman;fontColor=#000000;" vertex="1" parent="1">
                    <mxGeometry x="350" y="328" width="70" height="30" as="geometry"/>
                </mxCell>
                <mxCell id="20" value="&lt;b id=&quot;docs-internal-guid-491bca35-7fff-ad0a-19ec-67bc4a69c7fa&quot; style=&quot;font-weight:normal;&quot;&gt;&lt;span style=&quot;font-size: 12pt; font-family: &amp;quot;Times New Roman&amp;quot;, serif; background-color: transparent; font-weight: 400; font-style: normal; font-variant: normal; text-decoration: none; vertical-align: baseline;&quot;&gt;&amp;lt;var&amp;gt;&lt;/span&gt;&lt;/b&gt;" style="text;strokeColor=none;fillColor=none;html=1;fontSize=24;fontStyle=1;verticalAlign=middle;align=center;fontFamily=Times New Roman;fontColor=#000000;" vertex="1" parent="1">
                    <mxGeometry x="485" y="564" width="60" height="30" as="geometry"/>
                </mxCell>
                <mxCell id="21" value="&lt;span style=&quot;&quot; id=&quot;docs-internal-guid-491bca35-7fff-ad0a-19ec-67bc4a69c7fa&quot;&gt;&lt;span style=&quot;font-size: 12pt; font-family: &amp;quot;Times New Roman&amp;quot;, serif; background-color: transparent; font-style: normal; font-variant: normal; vertical-align: baseline;&quot;&gt;k&lt;/span&gt;&lt;/span&gt;" style="text;strokeColor=none;fillColor=none;html=1;fontSize=24;fontStyle=1;verticalAlign=middle;align=center;fontFamily=Times New Roman;fontColor=#009900;" vertex="1" parent="1">
                    <mxGeometry x="485" y="626" width="60" height="30" as="geometry"/>
                </mxCell>
                <mxCell id="22" value="" style="edgeStyle=segmentEdgeStyle;endArrow=classic;html=1;curved=0;rounded=0;endSize=8;startSize=8;fontFamily=Times New Roman;fontColor=#000000;strokeColor=#050505;entryX=0.5;entryY=0;entryDx=0;entryDy=0;exitX=0.5;exitY=1;exitDx=0;exitDy=0;" edge="1" parent="1" source="3" target="4">
                    <mxGeometry width="50" height="50" relative="1" as="geometry">
                        <mxPoint x="330" y="180" as="sourcePoint"/>
                        <mxPoint x="380" y="130" as="targetPoint"/>
                        <Array as="points">
                            <mxPoint x="245" y="140"/>
                            <mxPoint x="125" y="140"/>
                        </Array>
                    </mxGeometry>
                </mxCell>
                <mxCell id="24" value="" style="edgeStyle=segmentEdgeStyle;endArrow=classic;html=1;curved=0;rounded=0;endSize=8;startSize=8;fontFamily=Times New Roman;fontColor=#000000;strokeColor=#050505;entryX=0.5;entryY=0;entryDx=0;entryDy=0;exitX=0.5;exitY=1;exitDx=0;exitDy=0;" edge="1" parent="1" source="3" target="6">
                    <mxGeometry width="50" height="50" relative="1" as="geometry">
                        <mxPoint x="255" y="142" as="sourcePoint"/>
                        <mxPoint x="135" y="169" as="targetPoint"/>
                        <Array as="points">
                            <mxPoint x="245" y="140"/>
                            <mxPoint x="210" y="140"/>
                        </Array>
                    </mxGeometry>
                </mxCell>
                <mxCell id="25" value="" style="edgeStyle=segmentEdgeStyle;endArrow=classic;html=1;curved=0;rounded=0;endSize=8;startSize=8;fontFamily=Times New Roman;fontColor=#000000;strokeColor=#050505;entryX=0.5;entryY=0;entryDx=0;entryDy=0;" edge="1" parent="1" target="7">
                    <mxGeometry width="50" height="50" relative="1" as="geometry">
                        <mxPoint x="240" y="140" as="sourcePoint"/>
                        <mxPoint x="145" y="179" as="targetPoint"/>
                        <Array as="points">
                            <mxPoint x="295" y="140"/>
                        </Array>
                    </mxGeometry>
                </mxCell>
                <mxCell id="26" value="" style="edgeStyle=segmentEdgeStyle;endArrow=classic;html=1;curved=0;rounded=0;endSize=8;startSize=8;fontFamily=Times New Roman;fontColor=#000000;strokeColor=#050505;entryX=0.5;entryY=0;entryDx=0;entryDy=0;" edge="1" parent="1" target="5">
                    <mxGeometry width="50" height="50" relative="1" as="geometry">
                        <mxPoint x="290" y="140" as="sourcePoint"/>
                        <mxPoint x="155" y="189" as="targetPoint"/>
                        <Array as="points">
                            <mxPoint x="385" y="140"/>
                        </Array>
                    </mxGeometry>
                </mxCell>
                <mxCell id="27" value="" style="edgeStyle=segmentEdgeStyle;endArrow=classic;html=1;curved=0;rounded=0;endSize=8;startSize=8;fontFamily=Times New Roman;fontColor=#000000;strokeColor=#050505;entryX=0.5;entryY=0;entryDx=0;entryDy=0;exitX=0.5;exitY=1;exitDx=0;exitDy=0;" edge="1" parent="1" source="6" target="8">
                    <mxGeometry width="50" height="50" relative="1" as="geometry">
                        <mxPoint x="285" y="172" as="sourcePoint"/>
                        <mxPoint x="165" y="199" as="targetPoint"/>
                        <Array as="points">
                            <mxPoint x="210" y="200"/>
                            <mxPoint x="210" y="200"/>
                        </Array>
                    </mxGeometry>
                </mxCell>
                <mxCell id="28" value="" style="edgeStyle=segmentEdgeStyle;endArrow=classic;html=1;curved=0;rounded=0;endSize=8;startSize=8;fontFamily=Times New Roman;fontColor=#000000;strokeColor=#050505;entryX=0.5;entryY=0;entryDx=0;entryDy=0;exitX=0.5;exitY=1;exitDx=0;exitDy=0;" edge="1" parent="1" source="5" target="16">
                    <mxGeometry width="50" height="50" relative="1" as="geometry">
                        <mxPoint x="220" y="199" as="sourcePoint"/>
                        <mxPoint x="220" y="224" as="targetPoint"/>
                        <Array as="points">
                            <mxPoint x="385" y="210"/>
                            <mxPoint x="385" y="210"/>
                        </Array>
                    </mxGeometry>
                </mxCell>
                <mxCell id="29" value="" style="edgeStyle=segmentEdgeStyle;endArrow=classic;html=1;curved=0;rounded=0;endSize=8;startSize=8;fontFamily=Times New Roman;fontColor=#000000;strokeColor=#050505;entryX=0.5;entryY=0;entryDx=0;entryDy=0;exitX=0.5;exitY=1;exitDx=0;exitDy=0;" edge="1" parent="1" source="16" target="18">
                    <mxGeometry width="50" height="50" relative="1" as="geometry">
                        <mxPoint x="395" y="269" as="sourcePoint"/>
                        <mxPoint x="395" y="322" as="targetPoint"/>
                        <Array as="points">
                            <mxPoint x="385" y="300"/>
                            <mxPoint x="305" y="300"/>
                        </Array>
                    </mxGeometry>
                </mxCell>
                <mxCell id="30" value="" style="edgeStyle=segmentEdgeStyle;endArrow=classic;html=1;curved=0;rounded=0;endSize=8;startSize=8;fontFamily=Times New Roman;fontColor=#000000;strokeColor=#050505;entryX=0.5;entryY=0;entryDx=0;entryDy=0;" edge="1" parent="1" target="17">
                    <mxGeometry width="50" height="50" relative="1" as="geometry">
                        <mxPoint x="370" y="300" as="sourcePoint"/>
                        <mxPoint x="405" y="262" as="targetPoint"/>
                        <Array as="points">
                            <mxPoint x="465" y="300"/>
                        </Array>
                    </mxGeometry>
                </mxCell>
                <mxCell id="31" value="" style="edgeStyle=segmentEdgeStyle;endArrow=classic;html=1;curved=0;rounded=0;endSize=8;startSize=8;fontFamily=Times New Roman;fontColor=#000000;strokeColor=#050505;entryX=0.5;entryY=0;entryDx=0;entryDy=0;" edge="1" parent="1" target="19">
                    <mxGeometry width="50" height="50" relative="1" as="geometry">
                        <mxPoint x="400" y="300" as="sourcePoint"/>
                        <mxPoint x="415" y="272" as="targetPoint"/>
                        <Array as="points">
                            <mxPoint x="385" y="300"/>
                        </Array>
                    </mxGeometry>
                </mxCell>
                <mxCell id="32" value="" style="edgeStyle=segmentEdgeStyle;endArrow=classic;html=1;curved=0;rounded=0;endSize=8;startSize=8;fontFamily=Times New Roman;fontColor=#000000;strokeColor=#050505;entryX=0.5;entryY=0;entryDx=0;entryDy=0;exitX=0.5;exitY=1;exitDx=0;exitDy=0;" edge="1" parent="1" source="19" target="10">
                    <mxGeometry width="50" height="50" relative="1" as="geometry">
                        <mxPoint x="395" y="199" as="sourcePoint"/>
                        <mxPoint x="395" y="252" as="targetPoint"/>
                        <Array as="points">
                            <mxPoint x="386" y="358"/>
                        </Array>
                    </mxGeometry>
                </mxCell>
                <mxCell id="33" value="" style="edgeStyle=segmentEdgeStyle;endArrow=classic;html=1;curved=0;rounded=0;endSize=8;startSize=8;fontFamily=Times New Roman;fontColor=#000000;strokeColor=#050505;entryX=0.5;entryY=0;entryDx=0;entryDy=0;exitX=0.5;exitY=1;exitDx=0;exitDy=0;" edge="1" parent="1" source="10" target="11">
                    <mxGeometry width="50" height="50" relative="1" as="geometry">
                        <mxPoint x="405" y="209" as="sourcePoint"/>
                        <mxPoint x="405" y="262" as="targetPoint"/>
                        <Array as="points">
                            <mxPoint x="386" y="450"/>
                            <mxPoint x="255" y="450"/>
                        </Array>
                    </mxGeometry>
                </mxCell>
                <mxCell id="34" value="" style="edgeStyle=segmentEdgeStyle;endArrow=classic;html=1;curved=0;rounded=0;endSize=8;startSize=8;fontFamily=Times New Roman;fontColor=#000000;strokeColor=#050505;entryX=0.5;entryY=0;entryDx=0;entryDy=0;" edge="1" parent="1" target="12">
                    <mxGeometry width="50" height="50" relative="1" as="geometry">
                        <mxPoint x="360" y="450" as="sourcePoint"/>
                        <mxPoint x="265" y="484" as="targetPoint"/>
                        <Array as="points">
                            <mxPoint x="515" y="450"/>
                        </Array>
                    </mxGeometry>
                </mxCell>
                <mxCell id="35" value="" style="edgeStyle=segmentEdgeStyle;endArrow=classic;html=1;curved=0;rounded=0;endSize=8;startSize=8;fontFamily=Times New Roman;fontColor=#000000;strokeColor=#050505;" edge="1" parent="1" target="14">
                    <mxGeometry width="50" height="50" relative="1" as="geometry">
                        <mxPoint x="390" y="450" as="sourcePoint"/>
                        <mxPoint x="275" y="494" as="targetPoint"/>
                        <Array as="points">
                            <mxPoint x="425" y="450"/>
                        </Array>
                    </mxGeometry>
                </mxCell>
                <mxCell id="36" value="" style="edgeStyle=segmentEdgeStyle;endArrow=classic;html=1;curved=0;rounded=0;endSize=8;startSize=8;fontFamily=Times New Roman;fontColor=#000000;strokeColor=#050505;" edge="1" parent="1">
                    <mxGeometry width="50" height="50" relative="1" as="geometry">
                        <mxPoint x="390" y="450" as="sourcePoint"/>
                        <mxPoint x="340" y="480" as="targetPoint"/>
                        <Array as="points">
                            <mxPoint x="340" y="450"/>
                            <mxPoint x="340" y="480"/>
                        </Array>
                    </mxGeometry>
                </mxCell>
                <mxCell id="37" value="" style="edgeStyle=segmentEdgeStyle;endArrow=classic;html=1;curved=0;rounded=0;endSize=8;startSize=8;fontFamily=Times New Roman;fontColor=#000000;strokeColor=#050505;entryX=0.5;entryY=0;entryDx=0;entryDy=0;exitX=0.5;exitY=1;exitDx=0;exitDy=0;" edge="1" parent="1" source="13" target="15">
                    <mxGeometry width="50" height="50" relative="1" as="geometry">
                        <mxPoint x="426" y="474" as="sourcePoint"/>
                        <mxPoint x="295" y="514" as="targetPoint"/>
                        <Array as="points">
                            <mxPoint x="340" y="520"/>
                            <mxPoint x="340" y="520"/>
                        </Array>
                    </mxGeometry>
                </mxCell>
                <mxCell id="38" value="" style="edgeStyle=segmentEdgeStyle;endArrow=classic;html=1;curved=0;rounded=0;endSize=8;startSize=8;fontFamily=Times New Roman;fontColor=#000000;strokeColor=#050505;entryX=0.5;entryY=0;entryDx=0;entryDy=0;exitX=0.5;exitY=1;exitDx=0;exitDy=0;" edge="1" parent="1" source="12" target="20">
                    <mxGeometry width="50" height="50" relative="1" as="geometry">
                        <mxPoint x="519" y="528" as="sourcePoint"/>
                        <mxPoint x="519" y="558" as="targetPoint"/>
                        <Array as="points">
                            <mxPoint x="515" y="550"/>
                            <mxPoint x="515" y="550"/>
                        </Array>
                    </mxGeometry>
                </mxCell>
                <mxCell id="39" value="" style="edgeStyle=segmentEdgeStyle;endArrow=classic;html=1;curved=0;rounded=0;endSize=8;startSize=8;fontFamily=Times New Roman;fontColor=#000000;strokeColor=#050505;exitX=0.5;exitY=1;exitDx=0;exitDy=0;" edge="1" parent="1" source="20" target="21">
                    <mxGeometry width="50" height="50" relative="1" as="geometry">
                        <mxPoint x="525" y="642" as="sourcePoint"/>
                        <mxPoint x="525" y="702" as="targetPoint"/>
                        <Array as="points">
                            <mxPoint x="515" y="610"/>
                            <mxPoint x="515" y="610"/>
                        </Array>
                    </mxGeometry>
                </mxCell>
            </root>
        </mxGraphModel>
    </diagram>
</mxfile>